<svg width="300" height="256" viewBox="0 0 300 256" fill="none" xmlns="http://www.w3.org/2000/svg">
<path d="M145.719 255.405V0H227.322C240.923 0 253.188 3.3446 264.117 10.0338C275.046 16.6014 283.728 25.5405 290.164 36.8513C296.721 48.0405 300 60.6284 300 74.6149C300 88.723 296.661 101.432 289.982 112.743C283.424 124.054 274.621 132.993 263.57 139.561C252.641 146.128 240.559 149.412 227.322 149.412H171.22V255.405H145.719ZM171.22 123.872H225.319C234.305 123.872 242.501 121.682 249.909 117.304C257.438 112.804 263.388 106.784 267.76 99.2432C272.253 91.5811 274.499 82.9459 274.499 73.3378C274.499 63.7297 272.253 55.1554 267.76 47.6149C263.388 39.9527 257.438 33.9324 249.909 29.5541C242.501 25.0541 234.305 22.8041 225.319 22.8041H171.22V123.872Z" fill="#FFC107"/>
<path d="M110.018 255.405L110.018 149.595H0V123.689L103.461 1.73981e-05H135.519V124.054H145.719V149.595H135.519V255.405H110.018ZM30.2368 123.689L110.018 124.054L109.472 36.4865L30.2368 123.689Z" fill="#FFC107"/>
</svg>
