<svg width="77" height="71" viewBox="0 0 77 71" fill="none" xmlns="http://www.w3.org/2000/svg">
<path fill-rule="evenodd" clip-rule="evenodd" d="M30.5472 41.2047C38.3914 49.3735 30.5471 70.2047 30.5471 70.2047H37.5471V41.2047H38.8V70.2047H45.8C45.8 70.2047 37.9558 49.3735 45.8 41.2047C49.8202 37.0181 56.5443 39.7331 62.6589 42.202C68.9686 44.7497 74.6292 47.0353 76 41.2047C76.5201 38.9926 76.3579 37.492 76.1429 35.5025C76.0956 35.0645 76.0457 34.6029 76 34.1047C74.4212 16.9065 64.7148 2.51949 47.6 0.204715C44.1944 -0.255894 38.8 0.204715 38.8 0.204715V34.2047H37.5471V0.204715C37.5471 0.204715 32.1527 -0.255894 28.7471 0.204715C11.6324 2.51949 1.926 16.9065 0.347166 34.1047C0.301433 34.6029 0.251547 35.0645 0.204221 35.5025C-0.0107621 37.492 -0.172911 38.9926 0.347166 41.2047C1.71793 47.0353 7.37858 44.7497 13.6883 42.202C19.8028 39.7331 26.5269 37.0181 30.5472 41.2047ZM30.5472 34.2047C24.2315 39.9717 14.9099 39.9292 8.64717 34.1047C-0.593942 25.5104 20.9723 1.81228 30.3971 10.2047C37.397 16.4378 37.4685 27.8846 30.5472 34.2047ZM45.8 34.2047C52.1157 39.9717 61.4372 39.9292 67.7 34.1047C76.9411 25.5104 55.3749 1.81228 45.95 10.2047C38.9502 16.4378 38.8786 27.8846 45.8 34.2047Z" fill="#12497C"/>
</svg>
